<?xml version="1.0" encoding="utf-8"?>
<!-- Generator: Adobe Illustrator 24.1.2, SVG Export Plug-In . SVG Version: 6.00 Build 0)  -->
<svg version="1.1" id="Capa_1" xmlns="http://www.w3.org/2000/svg" xmlns:xlink="http://www.w3.org/1999/xlink" x="0px" y="0px"
	 viewBox="0 0 553.8 114" style="enable-background:new 0 0 553.8 114;" xml:space="preserve">
<style type="text/css">
	.st0{fill-rule:evenodd;clip-rule:evenodd;fill:#050800;}
	.st1{fill-rule:evenodd;clip-rule:evenodd;fill:#FCB100;}
	.st2{fill-rule:evenodd;clip-rule:evenodd;fill:#005D96;}
	.st3{fill-rule:evenodd;clip-rule:evenodd;fill:#D7000B;}
	.st4{fill-rule:evenodd;clip-rule:evenodd;fill:#FFFFFF;}
	.st5{fill-rule:evenodd;clip-rule:evenodd;fill:#00874C;}
</style>
<g>
	<path class="st0" d="M539.3,35.9l3.5,8.2h-6.9L539.3,35.9z M540.4,31.6h-0.6l-6,14.3c-1.2,2.9-2,5.1-3.8,5.2v0.6h5.9v-0.6
		c-1,0-2-0.3-2-1.2c0-1.1,1.2-3.5,1.6-4.6h7.8l1.1,2.5c1.1,2.6,1.2,3.2-1.4,3.3v0.6h7.6v-0.6c-1.7,0.1-2.3-1.7-2.8-2.9L540.4,31.6z
		 M526.3,31.6h-0.6c-1,2.4-2.5,0-6.5,0c-6,0-10.2,4.4-10.2,10.3c0,6.5,4.4,10.2,10.2,10.2c2.9,0,5.9-1.5,7.7-3.7l-0.5-0.6
		c-2.1,2-4,3-7,3c-4.9,0-7.1-4.5-7.1-8.7c0-5.4,2.1-9.3,7-9.3c3.4,0,5.6,2.2,6.4,5.5h0.7L526.3,31.6z M502.9,34.4
		c0-0.9,0.4-1.8,2.9-1.8V32h-8.9v0.6c2.5,0,2.9,1,2.9,1.8v14.9c0,0.9-0.4,1.8-2.9,1.8v0.6h8.9v-0.6c-2.5,0-2.9-0.9-2.9-1.8V34.4z
		 M491.5,34.4c0-0.9,0.4-1.8,2.9-1.8V32h-7.1v0.6c2.4,0,2.9,1,2.9,1.8v11.9L478.7,32h-5.1v0.6c1.5,0,1.7,0.3,2.6,1.3l0.2,0.3v15.1
		c0,0.9-0.4,1.8-2.9,1.8v0.6h7.1v-0.6c-2.4,0-2.9-0.9-2.9-1.8V35.8L491,52.1h0.4V34.4z M470.1,31.6h-0.6c-1,2.4-2.5,0-6.5,0
		c-6,0-10.2,4.4-10.2,10.3c0,6.5,4.4,10.2,10.2,10.2c2.9,0,5.9-1.5,7.7-3.7l-0.5-0.6c-2.1,2-4,3-7,3c-4.9,0-7.1-4.5-7.1-8.7
		c0-5.4,2.1-9.3,7-9.3c3.4,0,5.6,2.2,6.4,5.5h0.7L470.1,31.6z M448.4,51.7l1.3-5h-0.8c-1.6,3.8-3.8,3.8-6.2,3.8h-3.9
		c-0.6,0-0.8-0.6-0.8-1.2V42h4.2c2,0,3.7,0.6,3.7,2.9h0.6v-7h-0.6c0,2.3-1.7,2.9-3.7,2.9H438v-6.4c0-0.7,0.6-1.2,1.3-1.2h4.8
		c2.1,0,3.1,1.4,3.4,3h0.7V32h-15.8v0.6c2.2,0,2.6,1,2.6,1.8v14.9c0,0.9-0.4,1.8-2.6,1.8v0.6H448.4z M425.3,51.2
		c-2.2,0-2.6-0.9-2.6-1.8V33.3h2.1c2.2,0,3.6,0,4.2,3.8h0.7l-0.2-5.1h-16.8l-0.2,5.1h0.7c0.7-3.8,2-3.8,4.2-3.8h2.1v16.1
		c0,0.9-0.4,1.8-2.6,1.8v0.6h8.3V51.2z M383.7,34.6c0-1.4,0.3-1.5,1.7-1.5c5.5,0,9.3,3,9.3,8.8c0,5.5-3.5,8.8-9.6,8.5
		c-0.7,0-1.4-0.4-1.4-1.5V34.6z M385.9,51.7c8,0,12-3.7,12-9.8c0-6.7-4.6-9.9-12.2-9.9H378v0.6c2.2,0,2.6,1,2.6,1.8v14.9
		c0,0.9-0.4,1.8-2.6,1.8v0.6H385.9z M364.1,35.9l3.5,8.2h-6.9L364.1,35.9z M365.2,31.6h-0.6l-6,14.3c-1.2,2.9-2,5.1-3.8,5.2v0.6h5.9
		v-0.6c-1,0-2-0.3-2-1.2c0-1.1,1.2-3.5,1.6-4.6h7.8l1.1,2.5c1.1,2.6,1.2,3.2-1.4,3.3v0.6h7.6v-0.6c-1.7,0.1-2.3-1.7-2.8-2.9
		L365.2,31.6z M338.6,34.6c0-1.4,0.3-1.5,1.7-1.5c5.5,0,9.3,3,9.3,8.8c0,5.5-3.5,8.8-9.6,8.5c-0.7,0-1.4-0.4-1.4-1.5V34.6z
		 M340.9,51.7c8,0,12-3.7,12-9.8c0-6.7-4.6-9.9-12.2-9.9h-7.7v0.6c2.2,0,2.6,1,2.6,1.8v14.9c0,0.9-0.4,1.8-2.6,1.8v0.6H340.9z
		 M327.3,34.4c0-0.9,0.4-1.8,2.9-1.8V32h-8.9v0.6c2.5,0,2.9,1,2.9,1.8v14.9c0,0.9-0.4,1.8-2.9,1.8v0.6h8.9v-0.6
		c-2.5,0-2.9-0.9-2.9-1.8V34.4z M304.7,52.1h0.7c0.3-2.2,2.4,0,5.5,0c4,0,6.3-2.8,6.3-5.4c0-3.6-2.7-4.8-6.8-7.3
		c-1.3-0.8-3.2-2-3.2-3.7c0-1.9,1.3-2.9,3.1-2.9c2.8,0,4.7,2.4,5.4,5.1h0.7l-0.7-6.3h-0.6c-0.7,2.2-2.1,0-5.3,0c-2.9,0-5.3,2-5.3,5
		c0,5.7,8.1,5.9,9.3,10c0.7,2.3-0.9,4.4-3.4,4.4c-3.2,0-5.2-2.5-6.2-5.3h-0.7L304.7,52.1z M287,34.6c0-1.4,0.3-1.4,2.2-1.4
		c2.7,0,4.8,1.2,4.8,4.1c0,3.2-2.6,4.1-7,4.3V34.6z M284,49.3c0,0.9-0.4,1.8-2.5,1.8v0.6h8.2v-0.6c-2.2,0-2.6-0.9-2.6-1.8v-6.7
		l1.7-0.1l7.1,9.2h4.8v-0.6c-1.3-0.1-2-0.7-2.8-1.7l-5.9-7.3c2.8-0.4,5.4-1.8,5.4-5c0-3.5-3-5.2-7.9-5.2h-7.9v0.6
		c2.1,0,2.5,1,2.5,1.8V49.3z M277.7,51.7l1.3-5h-0.8c-1.6,3.8-3.8,3.8-6.2,3.8h-3.9c-0.6,0-0.8-0.6-0.8-1.2V42h4.2
		c2,0,3.7,0.6,3.7,2.9h0.6v-7h-0.6c0,2.3-1.7,2.9-3.7,2.9h-4.2v-6.4c0-0.7,0.6-1.2,1.3-1.2h4.8c2.1,0,3.1,1.4,3.4,3h0.7V32h-15.8
		v0.6c2.2,0,2.6,1,2.6,1.8v14.9c0,0.9-0.4,1.8-2.6,1.8v0.6H277.7z M249.2,52.1h0.4c1.6-4.3,4.7-12.1,6.9-17.4
		c0.5-1.2,1.1-2.1,2.5-2.1V32h-6.1v0.6c0.9,0,2.2,0.2,2.2,1.3c0,0.7-0.4,1.8-0.7,2.5l-4.2,10.6l-4.3-9.7c-0.3-0.6-1.4-2.9-1.4-3.5
		c0-0.7,0.3-1.1,2.2-1.1V32h-7.9v0.6c1.7,0,2.5,1.7,3.3,3.5L249.2,52.1z M233.1,34.4c0-0.9,0.4-1.8,2.9-1.8V32h-8.9v0.6
		c2.5,0,2.9,1,2.9,1.8v14.9c0,0.9-0.4,1.8-2.9,1.8v0.6h8.9v-0.6c-2.5,0-2.9-0.9-2.9-1.8V34.4z M221.7,34.4c0-0.9,0.4-1.8,2.9-1.8V32
		h-7.1v0.6c2.4,0,2.9,1,2.9,1.8v11.9L208.9,32h-5.1v0.6c1.5,0,1.7,0.3,2.7,1.3l0.2,0.3v15.1c0,0.9-0.4,1.8-2.9,1.8v0.6h7.1v-0.6
		c-2.4,0-2.9-0.9-2.9-1.8V35.8l13.2,16.4h0.4V34.4z M183.4,44.2c0,5.4,2.2,7.9,7.6,7.9c1.3,0,2.9-0.3,3.8-0.8
		c3.4-1.6,3.7-4.2,3.7-7.6v-9.4c0-0.9,0.4-1.8,2.8-1.8V32h-6.9v0.6c2.4,0,2.8,1,2.8,1.8v9.4c0,2.8,0,7-5.6,7c-3.7,0-5.1-1.8-5.1-6.4
		v-10c0-0.9,0.4-1.8,2.6-1.8V32h-8.3v0.6c2.2,0,2.6,1,2.6,1.8V44.2z M539.3,66.7l3.5,8.2h-6.9L539.3,66.7z M540.4,62.4h-0.6l-6,14.3
		c-1.2,2.9-2,5.1-3.8,5.2v0.6h5.9V82c-1,0-2-0.3-2-1.3c0-1.1,1.2-3.5,1.6-4.6h7.8l1.1,2.5c1.1,2.6,1.2,3.2-1.4,3.3v0.6h7.6V82
		c-1.7,0.1-2.3-1.7-2.8-2.9L540.4,62.4z M525.2,65.2c0-0.9,0.4-1.8,2.9-1.8v-0.6h-8.9v0.6c2.5,0,2.9,1,2.9,1.8v14.9
		c0,0.9-0.5,1.8-2.9,1.8v0.6h8.9V82c-2.5,0-2.9-1-2.9-1.8V65.2z M503.9,65.4c0-1.4,0.3-1.4,2.2-1.4c2.7,0,4.8,1.2,4.8,4.1
		c0,3.2-2.7,4.1-7,4.3V65.4z M500.9,80.2c0,0.9-0.4,1.8-2.5,1.8v0.6h8.2V82c-2.2,0-2.6-1-2.6-1.8v-6.7l1.7-0.1l7.1,9.2h4.8V82
		c-1.3-0.1-2-0.7-2.8-1.7l-5.9-7.3c2.8-0.4,5.4-1.8,5.4-5c0-3.5-3-5.2-7.9-5.2h-7.8v0.6c2.1,0,2.5,1,2.5,1.8V80.2z M485.5,66.7
		l3.4,8.2h-6.9L485.5,66.7z M486.6,62.4H486l-6,14.3c-1.2,2.9-2,5.1-3.8,5.2v0.6h5.9V82c-1,0-2-0.3-2-1.3c0-1.1,1.2-3.5,1.6-4.6h7.8
		l1.1,2.5c1.1,2.6,1.2,3.2-1.4,3.3v0.6h7.6V82c-1.7,0.1-2.3-1.7-2.8-2.9L486.6,62.4z M471.7,65.2c0-0.9,0.5-1.8,2.6-1.8v-0.6h-5.9
		l-6.6,15l-6.9-15H449v0.6c2.4,0,2.8,1,2.8,1.8v14.9c0,0.9-0.4,1.8-2.9,1.8v0.6h7.1V82c-2.4,0-2.9-1-2.9-1.8V66.3l7.5,16.2h0.4
		l7.6-16.9v14.5c0,0.9-0.4,1.8-2.6,1.8v0.6h8.3V82c-2.2,0-2.6-1-2.6-1.8L471.7,65.2z M428.3,66.7l3.5,8.2h-6.9L428.3,66.7z
		 M429.4,62.4h-0.6l-6,14.3c-1.2,2.9-2,5.1-3.8,5.2v0.6h5.9V82c-1,0-2-0.3-2-1.3c0-1.1,1.2-3.5,1.6-4.6h7.8l1.1,2.5
		c1.1,2.6,1.2,3.2-1.4,3.3v0.6h7.6V82c-1.7,0.1-2.3-1.7-2.8-2.9L429.4,62.4z M415.4,82c-2.2,0-2.6-1-2.6-1.8V64.1h2.1
		c2.2,0,3.6,0,4.2,3.8h0.7l-0.2-5.1h-16.8l-0.2,5.1h0.7c0.7-3.8,2-3.8,4.2-3.8h2.1v16.1c0,0.9-0.4,1.8-2.6,1.8v0.6h8.3V82z
		 M398.1,65.2c0-0.9,0.4-1.8,2.9-1.8v-0.6h-7.1v0.6c2.4,0,2.9,1,2.9,1.8v11.9l-11.5-14.3h-5.1v0.6c1.5,0,1.7,0.3,2.7,1.3l0.2,0.3
		v15.1c0,0.9-0.4,1.8-2.9,1.8v0.6h7.1V82c-2.4,0-2.9-1-2.9-1.8V66.6L397.6,83h0.4V65.2z M367.4,66.7l3.4,8.2H364L367.4,66.7z
		 M368.5,62.4h-0.6l-6,14.3c-1.2,2.9-2,5.1-3.8,5.2v0.6h5.9V82c-1,0-2-0.3-2-1.3c0-1.1,1.2-3.5,1.6-4.6h7.8l1.1,2.5
		c1.1,2.6,1.2,3.2-1.4,3.3v0.6h7.6V82c-1.7,0.1-2.3-1.7-2.8-2.9L368.5,62.4z M342.3,83h0.7c0.3-2.2,2.4,0,5.5,0c4,0,6.3-2.8,6.3-5.4
		c0-3.6-2.7-4.8-6.8-7.3c-1.3-0.8-3.2-2-3.2-3.7c0-1.9,1.3-2.9,3.1-2.9c2.8,0,4.7,2.4,5.4,5.1h0.7l-0.7-6.3h-0.6
		c-0.7,2.2-2.1,0-5.3,0c-2.9,0-5.3,2-5.3,5c0,5.7,8.1,5.9,9.3,10c0.7,2.3-0.9,4.4-3.4,4.4c-3.2,0-5.2-2.5-6.2-5.3h-0.7L342.3,83z
		 M320.9,63.5c4.6-0.1,6.4,4.5,6.4,9.2c0.1,3.2-1.1,8.8-6.4,9.2c-3.5,0.3-6.4-3.1-6.4-9.2C314.6,67,316.5,63.8,320.9,63.5z
		 M320.9,62.4c-5.8-0.1-9.8,4.3-9.8,10.3c0,6.3,4.5,10.3,9.8,10.3c6,0,9.7-4.5,9.7-10.3C330.7,66.3,326.1,62.2,320.9,62.4z
		 M307.8,62.4h-0.6c-1,2.4-2.5,0-6.5,0c-6,0-10.2,4.4-10.2,10.3c0,6.5,4.4,10.2,10.2,10.2c2.9,0,5.9-1.5,7.7-3.7l-0.5-0.6
		c-2,2-4,3-7,3c-4.9,0-7.1-4.5-7.1-8.7c0-5.4,2.1-9.3,7-9.3c3.4,0,5.6,2.2,6.4,5.5h0.7L307.8,62.4z M285.3,65.2
		c0-0.9,0.4-1.8,2.9-1.8v-0.6h-8.9v0.6c2.5,0,2.9,1,2.9,1.8v14.9c0,0.9-0.4,1.8-2.9,1.8v0.6h8.9V82c-2.5,0-2.9-1-2.9-1.8V65.2z
		 M264,65.4c0-1.4,0.3-1.4,2.2-1.4c2.7,0,4.8,1.2,4.8,4.1c0,3.2-2.7,4.1-7,4.3V65.4z M261,80.2c0,0.9-0.4,1.8-2.5,1.8v0.6h8.2V82
		c-2.2,0-2.6-1-2.6-1.8v-6.7l1.7-0.1l7.1,9.2h4.8V82c-1.3-0.1-2-0.7-2.8-1.7l-5.9-7.3c2.8-0.4,5.4-1.8,5.4-5c0-3.5-3-5.2-7.9-5.2
		h-7.9v0.6c2.1,0,2.5,1,2.5,1.8V80.2z M255.5,82.5l1.3-5H256c-1.6,3.8-3.8,3.8-6.2,3.8h-3.9c-0.6,0-0.8-0.6-0.8-1.2v-7.3h4.2
		c2,0,3.7,0.6,3.7,2.9h0.6v-7h-0.6c0,2.3-1.7,2.9-3.7,2.9h-4.2v-6.4c0-0.7,0.6-1.2,1.3-1.2h4.8c2.1,0,3.1,1.4,3.4,3h0.7v-4.3h-15.8
		v0.6c2.2,0,2.6,1,2.6,1.8v14.9c0,0.9-0.4,1.8-2.6,1.8v0.6H255.5z M223,65.5c0-1.4,0.3-1.5,1.7-1.5c5.5,0,9.3,3,9.3,8.8
		c0,5.5-3.5,8.8-9.6,8.5c-0.7,0-1.4-0.4-1.4-1.5V65.5z M225.2,82.5c8,0,12-3.8,12-9.8c0-6.7-4.6-9.9-12.2-9.9h-7.7v0.6
		c2.2,0,2.6,1,2.6,1.8v14.9c0,0.9-0.4,1.8-2.6,1.8v0.6H225.2z M214.1,82.5l1.3-5h-0.8c-1.6,3.8-3.8,3.8-6.2,3.8h-3.9
		c-0.6,0-0.8-0.6-0.8-1.2v-7.3h4.2c2,0,3.7,0.6,3.7,2.9h0.6v-7h-0.6c0,2.3-1.7,2.9-3.7,2.9h-4.2v-6.4c0-0.7,0.6-1.2,1.3-1.2h4.8
		c2.1,0,3.1,1.4,3.4,3h0.7v-4.3h-15.8v0.6c2.2,0,2.6,1,2.6,1.8v14.9c0,0.9-0.4,1.8-2.6,1.8v0.6H214.1z M189,82.5V82
		c-2.2,0-2.7-1-2.7-1.8v-7.3h3.9c2,0,3.7,0.6,3.7,2.9h0.6v-7H194c0,2.3-1.7,2.9-3.7,2.9h-3.9v-6.4c0-0.7,0.2-1.2,1.3-1.2h3.9
		c2.1,0,3.9-0.2,4.3,3h0.7v-4.3h-15.8v0.6c2.2,0,2.6,1,2.6,1.8v14.9c0,0.9-0.4,1.8-2.6,1.8v0.6H189z"/>
	<g>
		<g>
			<path class="st1" d="M144.2,24.1l-61.6,0l0,47.2c0,0,0,0.2,0,0.4c0,1.9,1.7,4.1,2.8,5.4c2.1,2.4,5.1,3.6,8.2,3.6
				c0.5,0,0.9,0,0.9,0l10.1,0c0,0,0.9,0,2.1,0.1c3.5,0.4,4.8,1.6,6.7,4.4c2.2-3.4,4-4.4,8-4.5l12.6,0c4.6-0.7,8.3-3.3,9.8-7.8
				c0.3-0.9,0.4-1.5,0.4-1.6L144.2,24.1z"/>
			<path class="st2" d="M4.3,2.9C7,4.4,7.8,6.4,8.2,9.4l0,62c0,0,0,0.1,0,0.4c0.2,1.9,1.7,4,3,5.3c2.1,2.3,5.9,3.7,9,3.6l10.3,0
				c0,0,0.8,0,1.8,0.1c3.4,0.3,4.8,1.5,6.7,4.3c2.4-3.4,4.2-4.4,8.3-4.4l12.3,0c4.4-0.6,8.2-3.7,9.8-7.9c0.1-0.3,0.3-0.9,0.3-1.3
				l0-61.5c0,0,0.1-0.8,0.3-1.9c0.5-2.8,1.4-4,3.8-5.2l-17,0v29.9v1.1v28.3c0,0-0.1,0.6-0.2,1.3c-0.5,2.5-1.8,3.4-4.1,4.2H26.2
				c0,0-0.7-0.2-1.4-0.5c-2.4-1.1-3.1-2.5-3.5-5V33.9v-1.1V2.9L4.3,2.9z"/>
			<path class="st2" d="M78.7,2.9c2.7,1.6,3.5,3.5,4,6.5l0,13.6h61.6l0-13c0,0,0.1-0.8,0.3-1.9c0.6-2.6,1.7-4,3.5-5.2L78.7,2.9z"/>
			<g>
				<path class="st0" d="M125.1,71.2c-0.2,0.4-0.3,0.9-0.3,1.2l0.2-0.1C125.1,72.1,125.1,71.7,125.1,71.2z M127.5,73.6l0.1,0.4
					c0,0-0.2,0.2-0.3,0.4c-0.5,0.5-1,0.6-1.6,0.5c-0.5-0.1-1-0.5-1.4-0.8l0.2,0c-0.2-0.1-0.3-0.2-0.4-0.3c-0.6,0.4-1.9-0.1-2.4-0.3
					l0.3-0.3c-0.4-0.1-0.9-0.3-1.1-0.4c0,0,0.3-0.5,0.4-0.6c0.3-0.4,0.6-0.6,1-0.8l0.2-0.3c0.3-1.1,0.5-2.4-0.2-3.3
					c-0.3-0.4-0.5-0.7-0.6-1.1c-1.5,0.3-1.9,0.5-3.5,1.3c-0.4,0.2-0.9,0.3-1.4,0.1l-0.1-0.1c-0.1-0.1-0.3-0.2-0.3-0.4
					c-1.2,0-2.4,0-3.6,0.1c0.1,0.4,0.2,1,0.2,1.4c0.1,0.7,0.1,1.3,0.3,2l0.1,0.4c0.2,0.4,0.3,0.7,0.1,1.1l0,0.2
					c0.1,0.7-0.8,0.9-1.3,0.9c-0.4,0-0.9-0.3-1.2-0.5l0.1-0.2c-0.1,0-0.2-0.1-0.3-0.1c-0.2-0.1-0.6-0.3-0.6-0.3s0.1-0.3,0.1-0.5
					c0.1-0.3,0.2-0.6,0.4-0.8l0-1.4l-0.2-0.2l-0.1-0.2c-0.3,0.7-0.5,1.5-0.4,2.1l0.1,0.3c0.1,0.5,0,0.8-0.4,1.1l0.2,0.8
					c0,0-0.2,0.2-0.4,0.4c-0.8,0.6-1.4,0.5-2.3,0.2c0,0,0-0.2,0-0.3c0-0.1,0-0.1,0.1-0.2c-0.3,0-0.6-0.1-0.9-0.2
					c0,0,0.1-0.5,0.2-0.7c0.2-0.5,0.4-0.8,0.8-1.1l0.1-0.1c0-0.3,0.1-0.6,0.2-0.8c0.4-1.1-0.4-1-0.3-2.4c-0.7-0.5-1.8-1-2.1-1.7
					c-0.1-0.3-0.3-0.4-0.4-0.6l-0.1-0.1c-0.4-0.3-0.4-0.2-0.5-0.7l0-0.3c-0.1-0.3-0.3-0.7-0.5-1.1c-1.3-1-1.9,0.1-3-0.4
					c-0.1,0-0.1-0.1-0.2-0.1c-0.3-0.2-0.7-0.3-0.9-0.2l-0.2,0.1c-0.7,0.3-1.7,0.4-2.2-0.5c-0.3-0.1-0.6-0.4-0.8-0.7
					c-0.2-0.5-0.2-1,0.2-1.4l0.1-0.1c0.5-0.4,0.2-1.3,1.1-2.1c0.6-0.6,0.3-1,0.9-1.5c-0.7-0.3-1.2-0.8-1.7-1.4l0.5-0.6
					c0,0,0.3,0.2,0.7,0.3c0.3,0.1,0.9,0.4,1.3,0.2l0.2-0.1c0.4-0.1,0.7-0.2,1.1,0l0.1,0.1l0.2,0.1c0.4,0.2,0.6-0.4,1.5,0
					c0.1,0,0.1,0.1,0.2,0.1c0.3,0,1.4-0.2,2.4-0.2c1.1,0,1.7,0.3,2.8,0.3c1,0,1.5,0,2.5,0c1.9,0,3,0.3,4.9,0.3
					c2.8,0,4.3-0.8,7.1-0.7c1.9,0,4.9-0.2,5.8,1.7c0.6,0.4,0.9,0.9,0.9,1.9c0,1-0.1,2.5-0.9,3.3c-1,1.3-1.9,3.1-1.1,4.7
					c0.6,1.1,0.5,1.8,0.3,3.2c0,0,0,1.2,0.1,2c0,0.1,0,0.1,0.1,0.2l0.1,0.3C128,73.2,128,73.5,127.5,73.6z"/>
				<path class="st3" d="M126.1,72.7c-0.3,0.1-0.7,0.4-0.9,0.5c-0.1,0.1-0.3,0.2-0.3,0.3c0.1,0,0.2,0.1,0.3,0.1c0.5,0,0.7,0,1.1-0.4
					L126.1,72.7z M123,72c0,0-0.3,0.1-0.4,0.1c-0.2,0.1-0.4,0.2-0.5,0.4C123,72.7,123.1,72.8,123,72z M126,61.9
					c0.7-0.6,1.4-1.3,1.7-1.9c0-0.1,0-0.2,0-0.2c0.3-1.1,0.2-2.5-0.7-3c-1.4-0.7-3-0.5-4.5-0.6c-2.8-0.1-4.3,0.7-7.1,0.7
					c-1.9,0-3-0.3-4.9-0.3c-1,0-1.6,0.1-2.6,0c-1.1,0-1.7-0.3-2.7-0.3c-0.9,0-2.1,0.2-2.4,0.2c-0.5,0-0.6-0.3-1.1-0.2
					c-0.3,0.1-0.7,0.2-1,0l-0.1-0.1l-0.2-0.1c-0.2-0.1-0.4-0.1-0.5,0l-0.2,0.1c-0.1,0-0.2,0.1-0.3,0.1l0.8,0.4
					c-0.9,0.6-1,0.5-1.3,1.4C98.7,59,98,59.2,97.8,60c-0.1,0.5-0.3,0.9-0.6,1.3l-0.1,0.1c-0.4,0.4,0.3,0.9,0.7,0.8
					c0.2,0,0.4-0.1,0.6-0.2l0.2-0.1c0.5-0.2,1-0.1,1.5,0.2l0.2,0.1c0.9,0.4,1.6-0.8,3.5,0.7c0.6,0.5,1.1,1.3,1.3,2l0,0.3
					c0.2,0.2,0.3,0.3,0.4,0.4c0.7,0.6,0.3,0.9,1.1,1.3c0.6,0.3,1.7,1,1.7,1c-0.3,1.9,0.3,1.2,0.3,2.3c0,0.3,0,0.5-0.1,0.6l-0.1,0.2
					c-0.1,0.3-0.1,0.6-0.1,1c-0.3,0.3-0.7,0.6-0.8,1.1c0.6,0.1,0.8,0.1,1.2-0.3l-0.2-0.8c0.3-0.2,0.7-0.4,0.6-0.7l-0.1-0.3
					c-0.3-1.3,0.8-3.4,1.3-4.5c0.4,1.2,0.7,2.1,1.5,3.1l0.1,1.8l-0.4-0.2l0.3,0.4l-0.3,0.1c0,0.1-0.1,0.3-0.2,0.5
					c0.3,0.1,0.8,0.2,1.1,0l-0.1-0.4c0,0,0.1-0.2,0.1-0.2c0,0,0-0.1,0-0.2c0-0.2-0.1-0.3-0.1-0.4l-0.2-0.4c-0.3-0.7-0.2-1.4-0.3-2.1
					c-0.1-0.7-0.3-2.1-0.3-2.1s1.8-0.2,2.7-0.2c0.9,0,3.4,0,3.4,0l-0.6,0.4c0.6-0.2,1.6-0.8,2.4-1.1c0.9-0.3,1.9-0.4,2.9-0.5
					c0.1,0.8,0.1,1.5,0.6,2.2c1.1,1.4,0.7,3.1,0.1,4.6c0.1,0,0.4,0,0.5-0.1c0.2-1.3,0.6-2.3,0.9-3.4c0-0.1-0.2-2-0.2-2.1l0.7-0.2
					c0,0,0.2,0.5,0.5,1.2c0.7,1.9,0.7,2.7,0.5,4.6l0.2,0.2l0.3-0.1l0.1,0l-0.1-0.3c-0.3-0.8-0.2-1.7-0.2-2.5
					c0.1-1.2,0.3-1.8-0.3-2.8c-0.8-1.4-0.4-2.8,0.3-4.1c-0.6,0.4-1.1,0.7-1.6,0.8c-1.6,0.3-3.4-0.6-4.6-1.5h-0.2c0,0-0.1,0-0.1,0
					l-0.2,0.1c-0.8,0.3-1.2-0.3-1.3-1c0-0.4,0-0.4-0.2-0.5l-0.8-0.5c0,0,1.1-0.1,1.3-0.1c0.8,0,1.3,0.3,1.9,0.8
					c0.1,0,2.7,1.9,4.2,1.4c1.1-0.4,1.7-1.3,2.3-2.3l0.1-0.2c0,0,0.1,0.1,0,0.2l0.6-0.2c0,0,0,0.2-0.1,0.4l-0.1,0.2
					C127,60.8,126.6,61.5,126,61.9z M120.8,61.6c1,0.7,2.5,1.4,3.7,1.2c0.2-0.1,0.6-0.2,0.9-0.4c-1,0.6-2.2,0.5-3.8-0.2
					C121.4,61.9,121.1,61.8,120.8,61.6z M119.6,61.3c0.2-0.1,0.4-0.1,0.7-0.1l-0.2-0.1c0,0-0.3-0.2-0.5-0.3
					c-0.2-0.1-0.3-0.2-0.5-0.3l-0.1,0l0,0.4c0,0.2,0.1,0.6,0.4,0.5L119.6,61.3z"/>
			</g>
			<g>
				<polygon class="st0" points="114.4,6.2 115.6,8 119.2,7.3 119,8.4 119.9,8.2 119.2,11.5 121.6,13.1 121.3,13.3 122.2,13.9 
					119.2,16 119.9,19.6 116.2,18.9 114.2,22 113.6,21.1 113.4,21.4 111.8,19 108.4,19.6 108.6,18.8 107.6,19 108.2,15.4 
					106.4,14.2 105.2,13.1 108.3,11 107.6,7.3 111.3,8 113.4,4.9 114.3,6.2 				"/>
				<path class="st4" d="M111.9,8.5l1.4,3.2c0.1,0,0.1,0,0.2,0c0.1,0,0.1,0,0.2,0l1.3-3.2l-1.5-2.2L111.9,8.5z M112.5,12l-1.4-3.2
					l-2.6-0.5l0.5,2.6l3.2,1.3C112.3,12.2,112.4,12.1,112.5,12z M111.9,12.9l-3.2-1.3l-2.2,1.5l2.2,1.5l3.2-1.3l0-0.1
					C111.9,13.1,111.9,13,111.9,12.9z M112.2,14.1l-3.2,1.3l-0.5,2.6l2.6-0.5l1.3-3.1C112.4,14.3,112.3,14.2,112.2,14.1z
					 M113.2,14.7l-1.3,3.1l1.5,2.2l1.5-2.2l-1.2-3.1c-0.1,0-0.2,0-0.2,0C113.3,14.7,113.3,14.7,113.2,14.7z M114.4,14.4l1.3,3.1
					l2.6,0.5l-0.5-2.6l-3.1-1.3C114.6,14.2,114.5,14.3,114.4,14.4z M114.9,13.3l3.1,1.3l2.2-1.5l-2.2-1.5l-3.1,1.3
					c0,0.1,0,0.2,0,0.3L114.9,13.3z M114.6,12.2l3.2-1.3l0.5-2.6l-2.6,0.5l-1.3,3.2C114.4,12.1,114.5,12.1,114.6,12.2z M113.4,12.3
					c-0.5,0-0.9,0.4-0.9,0.9c0,0.5,0.4,0.9,0.9,0.9c0.5,0,0.9-0.4,0.9-0.9C114.4,12.7,113.9,12.3,113.4,12.3z"/>
			</g>
			<path class="st0" d="M146.6,72.8c0,0-0.2,2.9-2.8,6.1c-1.8,2.2-5.3,3.8-8.1,4.1l-12.6,0c0,0-2.9,0-4.4,0.9
				c-1.4,0.8-2.8,2.9-3.6,4.4c-0.3-0.5-0.7-1.1-1.1-1.7l-0.4,0.6c-0.9-1.4-1.6-2.5-2.4-3.4c-1.5-0.9-4.9-0.8-5-0.8l-10,0
				c-3.3,0.4-7-1-9.3-3.4c-0.8-0.5-1.5-1.2-2.2-1.9c-3.3-3.7-3.2-6.1-3.1-6.6l0-48.3l0-13.5c-0.4-2.7-1.2-4.2-2.8-5.3l-0.5,0.1
				c-0.3,0.1-3.6,1.2-4.8,2.8c-1.1,1.5-1.3,4.6-1.3,4.6l0,61.4c0,0.1,0,2.3-3.2,6c-1.8,2.1-5,3.7-7.8,4.1l-12.4,0c0,0-2.9,0-4.4,0.8
				c-1.5,0.8-3,2.9-3.9,4.4c-0.3-0.5-0.7-1.1-1.1-1.7L39,87.2c-0.8-1.3-1.4-2.3-2.1-3.1l-0.2-0.1C35,83.1,32,83.1,32,83.1l-10.3,0
				c0,0-1.4,0.1-3.4-0.4c-1.9-0.5-4.3-1.4-6.2-3.5c-0.6-0.4-1.2-0.9-1.7-1.5c-3.3-3.5-3.3-6-3.3-6.4l0-61.9C6.5,5.6,5.3,4.2,1.6,2.8
				l0.2-1.1h19.5h35.4l19.8,0l73.8,0l0,0.2l2,2c-1.4,0.7-3.5,1.8-4.4,3c-1,1.4-1.4,4.3-1.4,4.6v13.6L146.6,72.8z M144.2,24.1
				l-61.6,0l0,47.2c0,0,0,0.2,0,0.4c0,1.9,1.7,4.1,2.8,5.4c2.1,2.4,5.1,3.6,8.2,3.6c0.5,0,0.9,0,0.9,0l10.1,0c0,0,0.9,0,2.1,0.1
				c3.5,0.4,4.8,1.6,6.7,4.4c2.2-3.4,4-4.4,8-4.5l12.6,0c4.6-0.7,8.3-3.3,9.8-7.8c0.3-0.9,0.4-1.5,0.4-1.6L144.2,24.1z M78.7,2.9
				c2.7,1.6,3.5,3.5,4,6.5l0,13.6h61.6l0-13c0,0,0.1-0.8,0.3-1.9c0.6-2.6,1.7-4,3.5-5.2L78.7,2.9z M4.3,2.9C7,4.4,7.8,6.4,8.2,9.4
				l0,62c0,0,0,0.1,0,0.4c0.2,1.9,1.7,4,3,5.3c2.1,2.3,5.9,3.7,9,3.6l10.3,0c0,0,0.8,0,1.8,0.1c3.4,0.3,4.8,1.5,6.7,4.3
				c2.4-3.4,4.2-4.4,8.3-4.4l12.3,0c4.4-0.6,8.2-3.7,9.8-7.9c0.1-0.3,0.3-0.9,0.3-1.3l0-61.5c0,0,0.1-0.8,0.3-1.9
				c0.5-2.8,1.4-4,3.8-5.2l-17,0v29.9v1.1v28.3c0,0-0.1,0.6-0.2,1.3c-0.5,2.5-1.8,3.4-4.1,4.2H26.2c0,0-0.7-0.2-1.4-0.5
				c-2.4-1.1-3.1-2.5-3.5-5V33.9v-1.1V2.9L4.3,2.9z"/>
			<path class="st1" d="M22.5,62.2c0.5,2.8,1.3,3.6,3.9,4.4h12.5V33.9H22.5V62.2z"/>
			<g>
				<path class="st0" d="M36.9,47c0.2,0.4,0.1,0.8-0.2,1.2l0.2,1.6l-1,0.1l-0.8,0l-0.9,0l-0.7,0l-1-0.1l0.1-0.5l-1-0.1l0.3-1.6
					c-0.2-0.3-0.3-0.5-0.2-0.9l0-0.2c-0.3-0.4-0.5-0.8-0.5-1.2c0-0.3,0.1-0.5,0.2-0.6c-0.2-1.6-0.6-4.9-0.6-4.9l0.9,0.2l0.7-0.5
					l0.5,0.2l0.5-0.3l0.6,0.3l0.6-0.3l0.6,0.3l0.6-0.2l0.7,0.5l1-0.2l-0.2,1l0.8-0.2l-0.8,4.6l0.1,0.1c0.2,0.5,0,0.9-0.3,1.4
					L36.9,47z"/>
				<path class="st5" d="M32.4,45.9h3.2l0.1-0.2c0.3-0.4,0.3-0.6,0.1-1.1l0.7-3.9l-0.2,0l-0.6-0.4l-0.5,0.2l-0.5-0.3l-0.6,0.3
					l-0.6-0.3L33,40.6l-0.5-0.2L32,40.8l-0.2,0c0.1,0.9,0.3,2.6,0.5,3.8c0.1,0.4-0.2,0.5-0.2,0.7C32.1,45.5,32.3,45.7,32.4,45.9z
					 M35.4,47.8h-2.6l-0.1,0.7l0.2,0l0.7,0l0.9,0l0.8,0l0.3,0L35.4,47.8z M32.6,46.7c0,0.2-0.1,0.2,0,0.4h3c0.1-0.1,0.1-0.2,0.1-0.4
					L32.6,46.7L32.6,46.7z"/>
			</g>
			<g>
				<path class="st0" d="M33.1,59.7c0.2,0.4,0.1,0.8-0.2,1.2l0.2,1.6l-1,0.1l-0.8,0l-0.9,0l-0.7,0l-1-0.1l0.1-0.5l-1-0.1l0.3-1.6
					c-0.2-0.3-0.3-0.5-0.2-0.9l0-0.2c-0.3-0.4-0.5-0.8-0.5-1.2c0-0.3,0.1-0.5,0.2-0.6c-0.2-1.6-0.6-4.9-0.6-4.9l0.9,0.2l0.7-0.5
					l0.5,0.2l0.5-0.3l0.6,0.3l0.6-0.3l0.6,0.3l0.6-0.2l0.7,0.5l1-0.2l-0.2,1l0.8-0.2l-0.8,4.6l0.1,0.1c0.2,0.5,0,0.9-0.3,1.4
					L33.1,59.7z"/>
				<path class="st5" d="M28.6,58.5h3.2l0.1-0.2c0.3-0.4,0.3-0.6,0.1-1.1l0.7-3.9l-0.2,0l-0.6-0.4l-0.5,0.2L30.8,53l-0.6,0.3
					L29.7,53l-0.5,0.3l-0.5-0.2l-0.6,0.4L28,53.4c0.1,0.9,0.3,2.6,0.5,3.8c0.1,0.4-0.2,0.5-0.2,0.7C28.3,58.2,28.5,58.4,28.6,58.5z
					 M31.6,60.4h-2.6l-0.1,0.7l0.2,0l0.7,0l0.9,0l0.7,0l0.3,0L31.6,60.4z M28.8,59.3c0,0.2-0.1,0.2,0,0.4h3c0.1-0.1,0.1-0.2,0.1-0.4
					L28.8,59.3L28.8,59.3z"/>
			</g>
			<g>
				<path class="st0" d="M125.1,47.8c-0.2,0.4-0.3,0.9-0.3,1.2l0.2-0.1C125.1,48.7,125.1,48.3,125.1,47.8z M127.5,50.2l0.1,0.4
					c0,0-0.2,0.2-0.3,0.4c-0.5,0.5-1,0.6-1.6,0.5c-0.5-0.1-1-0.5-1.4-0.8l0.2,0c-0.2-0.1-0.3-0.2-0.4-0.3c-0.6,0.4-1.9-0.1-2.4-0.3
					l0.3-0.3c-0.4-0.1-0.9-0.3-1.1-0.4c0,0,0.3-0.5,0.4-0.6c0.3-0.4,0.6-0.6,1-0.8l0.2-0.3c0.3-1.1,0.5-2.4-0.2-3.3
					c-0.3-0.4-0.5-0.7-0.6-1.1c-1.5,0.3-1.9,0.5-3.5,1.3c-0.4,0.2-0.9,0.3-1.4,0.1l-0.1-0.1c-0.1-0.1-0.3-0.2-0.3-0.4
					c-1.2,0-2.4,0-3.6,0.1c0.1,0.4,0.2,1,0.2,1.4c0.1,0.7,0.1,1.3,0.3,2l0.1,0.4c0.2,0.4,0.3,0.7,0.1,1.1l0,0.2
					c0.1,0.7-0.8,0.9-1.3,0.9c-0.4,0-0.9-0.3-1.2-0.5l0.1-0.2c-0.1,0-0.2-0.1-0.3-0.1c-0.2-0.1-0.6-0.3-0.6-0.3s0.1-0.3,0.1-0.5
					c0.1-0.3,0.2-0.6,0.4-0.8l0-1.4l-0.2-0.2l-0.1-0.2c-0.3,0.7-0.5,1.5-0.4,2.1l0.1,0.3c0.1,0.5,0,0.8-0.4,1.1l0.2,0.8
					c0,0-0.2,0.2-0.4,0.4c-0.8,0.6-1.4,0.5-2.3,0.2c0,0,0-0.2,0-0.3c0-0.1,0-0.1,0.1-0.2c-0.3,0-0.6-0.1-0.9-0.2
					c0,0,0.1-0.5,0.2-0.7c0.2-0.5,0.4-0.8,0.8-1.1l0.1-0.1c0-0.3,0.1-0.6,0.2-0.8c0.4-1.1-0.4-1-0.3-2.4c-0.7-0.5-1.8-1-2.1-1.7
					c-0.1-0.3-0.3-0.4-0.4-0.6l-0.1-0.1c-0.4-0.3-0.4-0.2-0.5-0.7l0-0.3c-0.1-0.3-0.3-0.7-0.5-1.1c-1.3-1-1.9,0.1-3-0.4
					c-0.1,0-0.1-0.1-0.2-0.1c-0.3-0.2-0.7-0.3-0.9-0.2l-0.2,0.1c-0.7,0.3-1.7,0.4-2.2-0.5c-0.3-0.1-0.6-0.4-0.8-0.7
					c-0.2-0.5-0.2-1,0.2-1.4l0.1-0.1c0.5-0.4,0.2-1.3,1.1-2.1c0.6-0.6,0.3-1,0.9-1.5c-0.7-0.3-1.2-0.8-1.7-1.4l0.5-0.6
					c0,0,0.3,0.2,0.7,0.3c0.3,0.1,0.9,0.4,1.3,0.2l0.2-0.1c0.4-0.1,0.7-0.2,1.1,0l0.1,0.1l0.2,0.1c0.4,0.2,0.6-0.4,1.5,0
					c0.1,0,0.1,0.1,0.2,0.1c0.3,0,1.4-0.2,2.4-0.2c1.1,0,1.7,0.3,2.8,0.3c1,0,1.5,0,2.5,0c1.9,0,3,0.3,4.9,0.3
					c2.8,0,4.3-0.8,7.1-0.7c1.9,0,4.9-0.2,5.8,1.7c0.6,0.4,0.9,0.9,0.9,1.9c0,1-0.1,2.5-0.9,3.3c-1,1.3-1.9,3.1-1.1,4.7
					c0.6,1.1,0.5,1.8,0.3,3.2c0,0,0,1.2,0.1,2c0,0.1,0,0.1,0.1,0.2l0.1,0.3C128,49.8,128,50.1,127.5,50.2z"/>
				<path class="st3" d="M123,48.6c0,0-0.3,0.1-0.4,0.1c-0.2,0.1-0.4,0.2-0.5,0.4C123,49.3,123.1,49.4,123,48.6z M126.1,49.3
					c-0.3,0.1-0.7,0.4-0.9,0.5c-0.1,0.1-0.3,0.2-0.3,0.3c0.1,0,0.2,0.1,0.3,0.1c0.5,0,0.7,0,1.1-0.4L126.1,49.3z M126,38.5
					c0.7-0.6,1.4-1.3,1.7-1.9c0-0.1,0-0.2,0-0.2c0.3-1.1,0.2-2.5-0.7-3c-1.4-0.7-3-0.5-4.5-0.6c-2.8-0.1-4.3,0.7-7.1,0.7
					c-1.9,0-3-0.3-4.9-0.3c-1,0-1.6,0.1-2.6,0c-1.1,0-1.7-0.3-2.7-0.3c-0.9,0-2.1,0.2-2.4,0.2c-0.5,0-0.6-0.4-1.1-0.2
					c-0.3,0.1-0.7,0.2-1,0l-0.1-0.1l-0.2-0.1c-0.2-0.1-0.4-0.1-0.5,0L99.8,33c-0.1,0-0.2,0.1-0.3,0.1l0.8,0.4
					c-0.9,0.6-1,0.5-1.3,1.4c-0.2,0.7-0.9,0.9-1.1,1.6c-0.1,0.5-0.3,0.9-0.6,1.3l-0.1,0.1c-0.4,0.4,0.3,0.9,0.7,0.8
					c0.2,0,0.4-0.1,0.6-0.2l0.2-0.1c0.5-0.2,1-0.1,1.5,0.2l0.2,0.1c0.9,0.4,1.6-0.8,3.5,0.7c0.6,0.5,1.1,1.3,1.3,2l0,0.3
					c0.2,0.2,0.3,0.3,0.4,0.4c0.7,0.6,0.3,0.9,1.1,1.3c0.6,0.3,1.7,1,1.7,1c-0.3,1.9,0.3,1.2,0.3,2.3c0,0.3,0,0.5-0.1,0.6l-0.1,0.2
					c-0.1,0.3-0.1,0.6-0.1,1c-0.3,0.3-0.7,0.6-0.8,1.1c0.6,0.1,0.8,0.1,1.2-0.3l-0.2-0.8c0.3-0.2,0.7-0.4,0.6-0.7l-0.1-0.3
					c-0.3-1.3,0.8-3.4,1.3-4.5c0.4,1.2,0.7,2.1,1.5,3.1l0.1,1.8l-0.4-0.2l0.3,0.4l-0.3,0.1c0,0.1-0.1,0.3-0.2,0.5
					c0.3,0.1,0.8,0.2,1.1,0l-0.1-0.4c0,0,0.1-0.2,0.1-0.2c0,0,0-0.1,0-0.2c0-0.2-0.1-0.3-0.1-0.4l-0.2-0.4c-0.3-0.7-0.2-1.4-0.3-2.1
					c-0.1-0.7-0.3-2.1-0.3-2.1s1.8-0.2,2.7-0.2c0.9,0,3.4,0,3.4,0l-0.6,0.4c0.6-0.2,1.6-0.8,2.4-1.1c0.9-0.3,1.9-0.4,2.9-0.5
					c0.1,0.8,0.1,1.5,0.6,2.2c1.1,1.4,0.7,3.1,0.1,4.6c0.1,0,0.4,0,0.5-0.1c0.2-1.3,0.6-2.3,0.9-3.4c0-0.1-0.2-2-0.2-2.1l0.7-0.2
					c0,0,0.2,0.5,0.5,1.2c0.7,1.9,0.7,2.7,0.5,4.6l0.2,0.2l0.3-0.1l0.1,0l-0.1-0.3c-0.3-0.8-0.2-1.7-0.2-2.5
					c0.1-1.2,0.3-1.8-0.3-2.8c-0.8-1.4-0.4-2.8,0.3-4.1c-0.6,0.4-1.1,0.7-1.6,0.8c-1.6,0.3-3.4-0.6-4.6-1.5l-0.2,0c0,0-0.1,0-0.1,0
					l-0.2,0.1c-0.8,0.3-1.2-0.3-1.3-1c0-0.4,0-0.4-0.2-0.5l-0.8-0.5c0,0,1.1-0.1,1.3-0.1c0.8,0,1.3,0.3,1.9,0.8
					c0.1,0,2.7,1.9,4.2,1.4c1.1-0.4,1.7-1.3,2.3-2.3l0.1-0.2c0,0,0.1,0.1,0,0.2l0.6-0.2c0,0,0,0.2-0.1,0.4l-0.1,0.2
					C127,37.4,126.6,38.1,126,38.5z M120.8,38.2c1,0.7,2.5,1.4,3.7,1.2c0.2,0,0.6-0.2,0.9-0.4c-1,0.6-2.2,0.5-3.8-0.2
					C121.4,38.5,121.1,38.3,120.8,38.2z M119.6,37.9c0.2-0.1,0.4-0.1,0.7-0.1l-0.2-0.1c0,0-0.3-0.2-0.5-0.3
					c-0.2-0.1-0.3-0.2-0.5-0.3l-0.1,0l0,0.4c0,0.2,0.1,0.6,0.4,0.5L119.6,37.9z"/>
			</g>
			<g>
				<path class="st0" d="M52.6,70.7l0.5,0l0.5,2.2l0.4,0.5c0,0,0.1,0.1,0.1,0.2c0.1,0.1,0.2,0.3,0.3,0.4l0.3,0.3c0,0,0,0.1,0.1,0.2
					c0.8,1,0.6,1.8-0.4,2.6c-0.2,1.6-0.9,2-2.5,1.8c-0.4,0.4-1,0.9-1.6,0.9s-1.2-0.5-1.6-0.9c-1,0.2-1.8,0.2-2.2-0.7
					c-0.7-0.2-1-0.8-1.1-1.8l-0.2-0.2c-1.1-0.8-0.7-1.9,0-2.8l1-1.1l0.6-2.4l1.5-0.1c0.9-0.7,1.4-0.7,2.4,0l1.6,0.1L52.6,70.7z"/>
				<path class="st4" d="M50.3,70.3c-0.1-0.1-0.2-0.1-0.3-0.2c-0.2-0.2-0.4-0.2-0.6-0.1l-0.7,0.5c-0.2,0.2-0.2,0.4-0.4,0.6
					c-0.1,0.1-0.7-0.1-0.6-0.5l-0.3,0l-0.5,2l-1.2,1.3c-0.5,0.5-0.8,1.2-0.1,1.7l1.1-1.6l0.6,0.4l-1.2,1.8c0.1,1.2,0.4,1.4,1.6,1.1
					l0.4-2.7l0.8,0.1l-0.4,2.8c0.2,0.2,0.7,0.7,1.1,0.7c0.4,0,0.9-0.4,1.1-0.6l-0.6-2.8l0.7-0.2l0.6,2.8c1.1,0.1,1.4-0.1,1.6-1.2
					l-1.3-1.7l0.6-0.5l1.1,1.5c0.6-0.5,0.5-1,0-1.6l-1.2-1.3l-0.5-2l-0.3,0l-0.7,0.4c-0.1-0.2-0.2-0.3-0.3-0.5L50.3,70.3z"/>
			</g>
			<g>
				<path class="st0" d="M29.3,47c0.2,0.4,0.1,0.8-0.2,1.2l0.2,1.6l-1,0.1l-0.8,0l-0.9,0l-0.7,0l-1-0.1l0.1-0.5l-1-0.1l0.3-1.6
					c-0.2-0.3-0.3-0.5-0.2-0.9l0-0.2c-0.3-0.4-0.5-0.8-0.5-1.2c0-0.3,0.1-0.5,0.2-0.6c-0.2-1.6-0.6-4.9-0.6-4.9l0.9,0.2l0.7-0.5
					l0.5,0.2l0.5-0.3l0.6,0.3l0.6-0.3l0.6,0.3l0.6-0.2l0.7,0.5l1-0.2l-0.2,1l0.8-0.2l-0.8,4.6l0.1,0.1c0.2,0.5,0,0.9-0.3,1.4
					L29.3,47z"/>
				<path class="st5" d="M24.8,45.9h3.2l0.1-0.2c0.3-0.4,0.3-0.6,0.1-1.1l0.7-3.9l-0.2,0l-0.6-0.4l-0.5,0.2L27,40.3l-0.6,0.3
					l-0.6-0.3l-0.5,0.3l-0.5-0.2l-0.6,0.4l-0.2,0c0.1,0.9,0.3,2.6,0.5,3.8c0.1,0.4-0.2,0.5-0.2,0.7C24.5,45.5,24.7,45.7,24.8,45.9z
					 M27.8,47.8h-2.6L25,48.5l0.2,0l0.7,0l0.9,0l0.8,0l0.3,0L27.8,47.8z M24.9,46.7c0,0.2-0.1,0.2,0,0.4h3c0.1-0.1,0.1-0.2,0.1-0.4
					L24.9,46.7L24.9,46.7z"/>
			</g>
			<g>
				<path class="st0" d="M31.5,70.7l0.5,0l0.5,2.2l0.4,0.5c0,0,0.1,0.1,0.1,0.2c0.1,0.1,0.2,0.3,0.3,0.4l0.3,0.3
					c0,0,0.1,0.1,0.1,0.2c0.8,1,0.6,1.8-0.4,2.6c-0.2,1.6-0.9,2-2.5,1.8c-0.4,0.4-1,0.9-1.6,0.9c-0.6,0-1.2-0.5-1.6-0.9
					c-1,0.2-1.8,0.2-2.2-0.7c-0.7-0.2-1-0.8-1.1-1.8l-0.2-0.2c-1.1-0.8-0.7-1.9,0-2.8l1-1.1l0.6-2.4l1.5-0.1c0.9-0.7,1.4-0.7,2.4,0
					l1.6,0.1L31.5,70.7z"/>
				<path class="st4" d="M29.1,70.3c-0.1-0.1-0.2-0.1-0.3-0.2c-0.2-0.2-0.4-0.2-0.6-0.1l-0.7,0.5c-0.2,0.2-0.2,0.4-0.4,0.6
					c-0.1,0.1-0.7-0.1-0.6-0.5l-0.3,0l-0.5,2l-1.2,1.3c-0.5,0.5-0.8,1.2-0.1,1.7l1.1-1.6l0.6,0.4L25,76.1c0.1,1.2,0.4,1.4,1.6,1.1
					l0.4-2.7l0.8,0.1l-0.4,2.8c0.2,0.2,0.7,0.7,1.1,0.7c0.4,0,0.9-0.4,1.1-0.6L29,74.6l0.7-0.2l0.6,2.8c1.1,0.1,1.4-0.1,1.6-1.2
					l-1.3-1.7l0.6-0.5l1.1,1.5c0.6-0.5,0.5-1,0-1.6l-1.2-1.3l-0.5-2l-0.3,0l-0.7,0.4c-0.1-0.2-0.2-0.3-0.3-0.5L29.1,70.3z"/>
			</g>
			<g>
				<path class="st0" d="M66.4,59.5l0.5,0l0.5,2.2l0.4,0.5c0,0,0.1,0.1,0.1,0.2c0.1,0.1,0.2,0.3,0.3,0.4l0.3,0.3
					c0,0,0.1,0.1,0.1,0.2c0.8,1,0.6,1.8-0.4,2.6c-0.2,1.6-0.9,2-2.5,1.8c-0.4,0.4-1,0.9-1.6,0.9c-0.6,0-1.2-0.5-1.6-0.9
					c-1,0.2-1.8,0.2-2.2-0.7c-0.7-0.2-1-0.8-1.1-1.8L59,64.9c-1.1-0.8-0.7-1.9,0-2.8l1-1.1l0.6-2.4l1.5-0.1c0.9-0.7,1.4-0.7,2.4,0
					l1.6,0.1L66.4,59.5z"/>
				<path class="st4" d="M64.1,59.1C64,59,63.9,59,63.8,58.9c-0.2-0.2-0.4-0.2-0.6-0.1l-0.7,0.5c-0.2,0.2-0.2,0.4-0.4,0.6
					c-0.1,0.1-0.7-0.1-0.6-0.5l-0.3,0l-0.5,2l-1.2,1.3c-0.5,0.5-0.8,1.2-0.1,1.7l1.1-1.6l0.6,0.4L60,64.9c0.1,1.2,0.4,1.4,1.6,1.1
					l0.4-2.7l0.8,0.1l-0.4,2.8c0.2,0.2,0.7,0.6,1.1,0.6s0.9-0.4,1.1-0.6l-0.6-2.9l0.7-0.2l0.6,2.8c1.1,0.1,1.4-0.1,1.6-1.2l-1.3-1.7
					l0.6-0.5l1.1,1.5c0.6-0.5,0.5-1,0-1.5L66,61.3l-0.5-2l-0.3,0l-0.7,0.4c-0.1-0.2-0.2-0.3-0.3-0.5L64.1,59.1z"/>
			</g>
			<g>
				<polygon class="st0" points="134.2,6.2 135.4,8 139,7.3 138.8,8.4 139.7,8.2 139,11.5 141.4,13.1 141.2,13.3 142,13.9 139,16 
					139.7,19.6 136,18.9 134,22 133.4,21.1 133.2,21.4 131.6,19 128.2,19.6 128.4,18.8 127.4,19 128,15.4 126.2,14.2 125,13.1 
					128.1,11 127.4,7.3 131.1,8 133.2,4.9 134.1,6.2 				"/>
				<path class="st4" d="M131.7,8.5l1.4,3.2c0.1,0,0.1,0,0.2,0c0.1,0,0.1,0,0.2,0l1.3-3.2l-1.5-2.2L131.7,8.5z M132.3,12L131,8.8
					l-2.6-0.5l0.5,2.6l3.2,1.3C132.1,12.2,132.2,12.1,132.3,12z M131.7,12.9l-3.2-1.3l-2.2,1.5l2.2,1.5l3.2-1.3l0-0.1
					C131.7,13.1,131.7,13,131.7,12.9z M132,14.1l-3.2,1.3l-0.5,2.6l2.6-0.5l1.3-3.1C132.2,14.3,132.1,14.2,132,14.1z M133,14.7
					l-1.3,3.1l1.5,2.2l1.5-2.2l-1.2-3.1c-0.1,0-0.2,0-0.2,0C133.1,14.7,133.1,14.7,133,14.7z M134.2,14.4l1.3,3.1l2.6,0.5l-0.5-2.6
					l-3.1-1.3C134.4,14.2,134.3,14.3,134.2,14.4z M134.7,13.3l3.1,1.3l2.2-1.5l-2.2-1.5l-3.1,1.3c0,0.1,0,0.2,0,0.3L134.7,13.3z
					 M134.4,12.2l3.2-1.3l0.5-2.6l-2.6,0.5l-1.3,3.2C134.2,12.1,134.3,12.1,134.4,12.2z M133.2,12.3c-0.5,0-0.9,0.4-0.9,0.9
					c0,0.5,0.4,0.9,0.9,0.9c0.5,0,0.9-0.4,0.9-0.9C134.2,12.7,133.8,12.3,133.2,12.3z"/>
			</g>
			<g>
				<path class="st0" d="M66.4,42.8l0.5,0l0.5,2.2l0.4,0.5c0,0,0.1,0.1,0.1,0.2c0.1,0.1,0.2,0.3,0.3,0.4l0.3,0.3
					c0,0,0.1,0.1,0.1,0.2c0.8,1,0.6,1.8-0.4,2.6c-0.2,1.6-0.9,2-2.5,1.8c-0.4,0.4-1,0.9-1.6,0.9c-0.6,0-1.2-0.5-1.6-0.9
					c-1,0.2-1.8,0.2-2.2-0.7c-0.7-0.2-1-0.8-1.1-1.8L59,48.2c-1.1-0.8-0.7-1.9,0-2.8l1-1.1l0.6-2.4l1.5-0.1c0.9-0.7,1.4-0.7,2.4,0
					l1.6,0.1L66.4,42.8z"/>
				<path class="st4" d="M64.1,42.5c-0.1-0.1-0.2-0.2-0.3-0.2c-0.2-0.2-0.4-0.2-0.6-0.1l-0.7,0.5c-0.2,0.2-0.2,0.4-0.4,0.6
					c-0.1,0.1-0.7-0.1-0.6-0.5l-0.3,0l-0.5,2L59.6,46c-0.5,0.5-0.8,1.2-0.1,1.7l1.1-1.6l0.6,0.4L60,48.3c0.1,1.2,0.4,1.4,1.6,1.1
					l0.4-2.7l0.8,0.1l-0.4,2.8c0.2,0.2,0.7,0.7,1.1,0.7c0.4,0,0.9-0.4,1.1-0.6l-0.6-2.9l0.7-0.2l0.6,2.8c1.1,0.1,1.4-0.1,1.6-1.2
					l-1.3-1.7l0.6-0.5l1.1,1.5c0.6-0.5,0.5-1,0-1.5L66,44.7l-0.5-2l-0.3,0l-0.7,0.4c-0.1-0.2-0.2-0.3-0.3-0.5L64.1,42.5z"/>
			</g>
			<g>
				<path class="st0" d="M66.4,26.2l0.5,0l0.5,2.2l0.4,0.5c0,0,0.1,0.1,0.1,0.2c0.1,0.1,0.2,0.3,0.3,0.4l0.3,0.3
					c0,0,0.1,0.1,0.1,0.2c0.8,1,0.6,1.8-0.4,2.6c-0.2,1.6-0.9,2-2.5,1.8c-0.4,0.4-1,0.9-1.6,0.9c-0.6,0-1.2-0.5-1.6-0.9
					c-1,0.2-1.8,0.2-2.2-0.7c-0.7-0.2-1-0.8-1.1-1.8L59,31.6c-1.1-0.8-0.7-1.9,0-2.8l1-1.1l0.6-2.4l1.5-0.1c0.9-0.7,1.4-0.7,2.4,0
					l1.6,0.1L66.4,26.2z"/>
				<path class="st4" d="M64.1,25.8c-0.1-0.1-0.2-0.2-0.3-0.2c-0.2-0.2-0.4-0.2-0.6-0.1L62.4,26c-0.2,0.2-0.2,0.4-0.4,0.6
					c-0.1,0.1-0.7-0.1-0.6-0.5l-0.3,0l-0.5,2l-1.2,1.3c-0.5,0.5-0.8,1.2-0.1,1.7l1.1-1.6l0.6,0.4L60,31.6c0.1,1.2,0.4,1.4,1.6,1.1
					l0.4-2.7l0.8,0.1L62.3,33c0.2,0.2,0.7,0.7,1.1,0.7s0.9-0.4,1.1-0.6l-0.6-2.9l0.7-0.2l0.6,2.8c1.1,0.1,1.4-0.1,1.6-1.2l-1.3-1.7
					l0.6-0.5l1.1,1.5c0.6-0.5,0.5-1,0-1.6L66,28.1l-0.5-2l-0.3,0l-0.7,0.4c-0.1-0.2-0.2-0.3-0.3-0.5L64.1,25.8z"/>
			</g>
			<g>
				<path class="st0" d="M66.4,9.5l0.5,0l0.5,2.2l0.4,0.5c0,0,0.1,0.1,0.1,0.2c0.1,0.1,0.2,0.3,0.3,0.4l0.3,0.3c0,0,0.1,0.1,0.1,0.2
					c0.8,1,0.6,1.8-0.4,2.6c-0.2,1.6-0.9,2-2.5,1.8c-0.4,0.4-1,0.9-1.6,0.9c-0.6,0-1.2-0.5-1.6-0.9c-1,0.2-1.8,0.2-2.2-0.7
					c-0.7-0.2-1-0.8-1.1-1.8L59,15c-1.1-0.8-0.7-1.9,0-2.8l1-1.1l0.6-2.4l1.5-0.1c0.9-0.7,1.4-0.7,2.4,0l1.6,0.1L66.4,9.5z"/>
				<path class="st4" d="M64.1,9.2C64,9.1,63.9,9,63.8,9c-0.2-0.2-0.4-0.2-0.6-0.1l-0.7,0.5c-0.2,0.2-0.2,0.4-0.4,0.6
					C62,10,61.4,9.8,61.5,9.4l-0.3,0l-0.5,2l-1.2,1.3c-0.5,0.5-0.8,1.2-0.1,1.7l1.1-1.6l0.6,0.4L60,15c0.1,1.2,0.4,1.4,1.6,1.1
					l0.4-2.7l0.8,0.1l-0.4,2.8c0.2,0.2,0.7,0.7,1.1,0.7s0.9-0.4,1.1-0.6l-0.6-2.8l0.7-0.2l0.6,2.8c1.1,0.1,1.4-0.1,1.6-1.2l-1.3-1.7
					l0.6-0.5l1.1,1.5c0.6-0.5,0.5-1,0-1.5L66,11.4l-0.5-2l-0.3,0l-0.7,0.4c-0.1-0.2-0.2-0.3-0.3-0.5L64.1,9.2z"/>
			</g>
			<g>
				<polygon class="st0" points="94.6,6.2 95.8,8 99.4,7.3 99.2,8.4 100.1,8.2 99.4,11.5 101.8,13.1 101.5,13.3 102.4,13.9 99.4,16 
					100,19.6 96.4,18.9 94.3,22 93.7,21.1 93.6,21.4 92,19 88.6,19.6 88.8,18.8 87.8,19 88.4,15.4 86.6,14.2 85.3,13.1 88.4,11 
					87.8,7.3 91.4,8 93.6,4.9 94.5,6.2 				"/>
				<path class="st4" d="M92.1,8.5l1.4,3.2c0.1,0,0.1,0,0.2,0c0.1,0,0.1,0,0.2,0l1.3-3.2l-1.5-2.2L92.1,8.5z M92.7,12l-1.4-3.2
					l-2.6-0.5l0.5,2.6l3.2,1.3C92.5,12.2,92.6,12.1,92.7,12z M92.1,12.9l-3.2-1.3l-2.2,1.5l2.2,1.5l3.2-1.3l0-0.1
					C92.1,13.1,92.1,13,92.1,12.9z M92.4,14.1l-3.2,1.3L88.7,18l2.6-0.5l1.3-3.1C92.6,14.3,92.4,14.2,92.4,14.1z M93.4,14.7
					l-1.3,3.1l1.5,2.2l1.5-2.2l-1.2-3.1c-0.1,0-0.2,0-0.2,0C93.5,14.7,93.4,14.7,93.4,14.7z M94.5,14.4l1.3,3.1l2.6,0.5l-0.5-2.6
					l-3.1-1.3C94.8,14.2,94.7,14.3,94.5,14.4z M95.1,13.3l3.1,1.3l2.2-1.5l-2.2-1.5l-3.1,1.3c0,0.1,0,0.2,0,0.3L95.1,13.3z
					 M94.8,12.2l3.2-1.3l0.5-2.6l-2.6,0.5L94.5,12C94.6,12.1,94.7,12.1,94.8,12.2z M93.6,12.3c-0.5,0-0.9,0.4-0.9,0.9
					c0,0.5,0.4,0.9,0.9,0.9c0.5,0,0.9-0.4,0.9-0.9C94.6,12.7,94.1,12.3,93.6,12.3z"/>
			</g>
			<g>
				<path class="st0" d="M17.7,59.5l0.5,0l0.5,2.2l0.4,0.5c0,0,0.1,0.1,0.1,0.2c0.1,0.1,0.2,0.3,0.3,0.4l0.3,0.3
					c0,0,0.1,0.1,0.1,0.2c0.8,1,0.6,1.8-0.4,2.6c-0.2,1.6-0.9,2-2.5,1.8c-0.4,0.4-1,0.9-1.6,0.9c-0.6,0-1.2-0.5-1.6-0.9
					c-1,0.2-1.8,0.2-2.2-0.7c-0.7-0.2-1-0.8-1.1-1.8l-0.2-0.1c-1.1-0.8-0.7-1.9,0-2.8l1-1.1l0.6-2.4l1.5-0.1c0.9-0.7,1.4-0.7,2.4,0
					l1.6,0.1L17.7,59.5z"/>
				<path class="st4" d="M15.3,59.1c-0.1-0.1-0.2-0.2-0.3-0.2c-0.2-0.2-0.4-0.2-0.6-0.1l-0.7,0.5c-0.2,0.2-0.2,0.4-0.4,0.6
					c-0.1,0.1-0.7-0.1-0.6-0.5l-0.3,0l-0.5,2l-1.2,1.3c-0.5,0.5-0.8,1.2-0.1,1.7l1.1-1.6l0.6,0.4l-1.2,1.8c0.1,1.2,0.4,1.4,1.6,1.1
					l0.4-2.7l0.7,0.1l-0.4,2.8c0.2,0.2,0.7,0.6,1.1,0.6c0.4,0,0.9-0.4,1.1-0.6l-0.6-2.9l0.7-0.2l0.6,2.8c1.1,0.1,1.4-0.1,1.6-1.2
					l-1.3-1.7l0.6-0.5l1.1,1.5c0.6-0.5,0.5-1,0-1.5l-1.2-1.3l-0.5-2l-0.3,0l-0.7,0.4c-0.1-0.2-0.2-0.3-0.3-0.5L15.3,59.1z"/>
			</g>
			<g>
				<path class="st0" d="M17.7,42.8l0.5,0l0.5,2.2l0.4,0.5c0,0,0.1,0.1,0.1,0.2c0.1,0.1,0.2,0.3,0.3,0.4l0.3,0.3
					c0,0,0.1,0.1,0.1,0.2c0.8,1,0.6,1.8-0.4,2.6c-0.2,1.6-0.9,2-2.5,1.8c-0.4,0.4-1,0.9-1.6,0.9c-0.6,0-1.2-0.5-1.6-0.9
					c-1,0.2-1.8,0.2-2.2-0.7c-0.7-0.2-1-0.8-1.1-1.8l-0.2-0.2c-1.1-0.8-0.7-1.9,0-2.8l1-1.1l0.6-2.4l1.5-0.1c0.9-0.7,1.4-0.7,2.4,0
					l1.6,0.1L17.7,42.8z"/>
				<path class="st4" d="M15.3,42.5c-0.1-0.1-0.2-0.2-0.3-0.2c-0.2-0.2-0.4-0.2-0.6-0.1l-0.7,0.5c-0.2,0.2-0.2,0.4-0.4,0.6
					c-0.1,0.1-0.7-0.1-0.6-0.5l-0.3,0l-0.5,2L10.9,46c-0.5,0.5-0.8,1.2-0.1,1.7l1.1-1.6l0.6,0.4l-1.2,1.8c0.1,1.2,0.4,1.4,1.6,1.1
					l0.4-2.7l0.7,0.1l-0.4,2.8c0.2,0.2,0.7,0.7,1.1,0.7c0.4,0,0.9-0.4,1.1-0.6l-0.6-2.9l0.7-0.2l0.6,2.8c1.1,0.1,1.4-0.1,1.6-1.2
					l-1.3-1.7l0.6-0.5l1.1,1.5c0.6-0.5,0.5-1,0-1.5l-1.2-1.3l-0.5-2l-0.3,0l-0.7,0.4c-0.1-0.2-0.2-0.3-0.3-0.5L15.3,42.5z"/>
			</g>
			<g>
				<path class="st0" d="M17.7,26.2l0.5,0l0.5,2.2l0.4,0.5c0,0,0.1,0.1,0.1,0.2c0.1,0.1,0.2,0.3,0.3,0.4l0.3,0.3
					c0,0,0.1,0.1,0.1,0.2c0.8,1,0.6,1.8-0.4,2.6c-0.2,1.6-0.9,2-2.5,1.8c-0.4,0.4-1,0.9-1.6,0.9c-0.6,0-1.2-0.5-1.6-0.9
					c-1,0.2-1.8,0.2-2.2-0.7c-0.7-0.2-1-0.8-1.1-1.8l-0.2-0.2c-1.1-0.8-0.7-1.9,0-2.8l1-1.1l0.6-2.4l1.5-0.1c0.9-0.7,1.4-0.7,2.4,0
					l1.6,0.1L17.7,26.2z"/>
				<path class="st4" d="M15.3,25.8c-0.1-0.1-0.2-0.2-0.3-0.2c-0.2-0.2-0.4-0.2-0.6-0.1L13.7,26c-0.2,0.2-0.2,0.4-0.4,0.6
					c-0.1,0.1-0.7-0.1-0.6-0.5l-0.3,0l-0.5,2l-1.2,1.3c-0.5,0.5-0.8,1.2-0.1,1.7l1.1-1.6l0.6,0.4l-1.2,1.8c0.1,1.2,0.4,1.4,1.6,1.1
					l0.4-2.7l0.7,0.1L13.6,33c0.2,0.2,0.7,0.7,1.1,0.7c0.4,0,0.9-0.4,1.1-0.6l-0.6-2.9l0.7-0.2l0.6,2.8c1.1,0.1,1.4-0.1,1.6-1.2
					l-1.3-1.7l0.6-0.5l1.1,1.5c0.6-0.5,0.5-1,0-1.6l-1.2-1.3l-0.5-2l-0.3,0l-0.7,0.4c-0.1-0.2-0.2-0.3-0.3-0.5L15.3,25.8z"/>
			</g>
			<g>
				<path class="st0" d="M17.7,9.5l0.5,0l0.5,2.2l0.4,0.5c0,0,0.1,0.1,0.1,0.2c0.1,0.1,0.2,0.3,0.3,0.4l0.3,0.3c0,0,0.1,0.1,0.1,0.2
					c0.8,1,0.6,1.8-0.4,2.6c-0.2,1.6-0.9,2-2.5,1.8c-0.4,0.4-1,0.9-1.6,0.9c-0.6,0-1.2-0.5-1.6-0.9c-1,0.2-1.8,0.2-2.2-0.7
					c-0.7-0.2-1-0.8-1.1-1.8L10.3,15c-1.1-0.8-0.7-1.9,0-2.8l1-1.1l0.6-2.4l1.5-0.1c0.9-0.7,1.4-0.7,2.4,0l1.6,0.1L17.7,9.5z"/>
				<path class="st4" d="M15.3,9.2C15.2,9.1,15.1,9,15.1,9c-0.2-0.2-0.4-0.2-0.6-0.1l-0.7,0.5c-0.2,0.2-0.2,0.4-0.4,0.6
					c-0.1,0.1-0.7-0.1-0.6-0.5l-0.3,0l-0.5,2l-1.2,1.3c-0.5,0.5-0.8,1.2-0.1,1.7l1.1-1.6l0.6,0.4L11.2,15c0.1,1.2,0.4,1.4,1.6,1.1
					l0.4-2.7l0.7,0.1l-0.4,2.8c0.2,0.2,0.7,0.7,1.1,0.7c0.4,0,0.9-0.4,1.1-0.6l-0.6-2.8l0.7-0.2l0.6,2.8c1.1,0.1,1.4-0.1,1.6-1.2
					l-1.3-1.7l0.6-0.5l1.1,1.5c0.6-0.5,0.5-1,0-1.5l-1.2-1.3l-0.5-2l-0.3,0l-0.7,0.4c-0.1-0.2-0.2-0.3-0.3-0.5L15.3,9.2z"/>
			</g>
			<polygon class="st3" points="55.6,2.9 49.8,2.9 39.1,13.7 28.2,2.9 22.5,2.9 22.5,8.6 31.6,17.9 22.5,27 22.5,32.8 28.2,32.8 
				39.1,22 49.9,32.8 55.6,32.8 55.6,27 46.4,17.9 55.6,8.7 			"/>
			<path class="st1" d="M40.1,66.6h12.2c2.5-0.9,3.1-1.8,3.4-4.4V33.9H40.1V66.6z"/>
			<g>
				<path class="st0" d="M43.9,49.1c-0.3-0.1-0.5-0.3-0.7-0.5c0-0.1-0.1-0.1-0.1-0.1c-1-0.4-1.2-1.3-0.7-2.4
					c-1.5-1.1-1.7-2.1-0.2-3.4c-1.2-1.1-0.5-3.4,1.1-3.7c-0.2-1.9,1.1-2.5,2.7-2.1c1-1.3,3.1-1.4,4-0.1c1.1-0.5,2.1-0.2,2.3,0.8
					c0.1,0,0.1,0.1,0.2,0.1c0.4,0.3,0.5,0.7,0.5,1.1c0.4,0.3,0.7,0.6,0.8,1c0.3,0.2,0.6,0.5,0.7,0.9c0.2,0.8-0.1,1.5-0.6,2.1
					c0.6,0.6,1.1,1.4,1,2.2c-0.1,0.7-0.5,1.6-1.3,1.8c0.7,1.2,0.4,2.6-1.2,2.8c-0.2,0-0.4,0-0.5,0c0.1,1.8-0.8,2.2-2.4,1.6
					c-0.1,1.8,0,3.6,0.1,5.4c0.1,0.8,0.3,1.5,0.7,2.1c0.5,0.5,1,0.9,1.4,1.3l2,1.5l-0.1,0.3l0.8,0.6l-0.2,0.5c0,0-1.5-0.4-2.4-0.8
					c-0.5-0.2-1-0.4-1.5-0.8L50.4,61c0,0.1,0.1,0.2,0.1,0.3l0.6,1.7l-0.5,0.3c0,0-0.4-0.4-0.7-0.8c-0.1,0-0.8-0.7-1.3-1.2
					c-0.1-0.1-0.2-0.2-0.3-0.4c-0.5,0.5-1.3,1.6-1.6,1.9c-0.3,0.4-1.8,1.8-2.3,2.3l-0.4-0.3l0.6-1.2l-0.9,0.8L43.3,64l0.8-1.4
					c0,0,0.4-0.7,0.6-1c-0.8,0.3-1.5,0.6-2.5,0.9l-0.2-0.5l1.3-0.8c-0.6,0.2-1.1,0.4-1.7,0.6l-0.3-0.7l1.6-1c0,0,0.6-0.3,1.3-0.8
					c2.6-1.9,2.2-2.8,2.5-5.7c0.1-0.6,0.1-1.4,0.1-2.1c-0.7,0.2-1.5,0.1-1.8-0.7C44.2,50.6,43.8,50.1,43.9,49.1z"/>
				<path class="st5" d="M45.1,62.2c0.5-0.5,1.9-2.7,2.5-2.9c0.8-0.2,1.2,1.1,1.6,1.6l0-0.2c0,0,0-0.1-0.1-0.3
					c-0.1-0.8,0.5-1,1.1-0.6c0.4,0.3,0.8,0.5,1.3,0.6c-0.1-0.1-0.5-0.4-1-0.9c-2.3-2.1-2-3.2-2.2-5.9c-0.1-1.5,0-4.4,0-4.4
					c1.9,1,2.6,1.2,2.3-1.3c0.5,0,1.7,0.2,2-0.3c0.6-1.1-0.6-2.1-1.2-2.8c0,0,1.3,0.3,1.4,0.3c1.1,0.1,1.4-2,0-3L52.4,42
					c0.5-0.5,1.1-1.3,0.9-2.1c-0.2-0.8-1.1-0.9-1.8-1c0.1-0.4,0.5-1.3,0-1.6c-0.6-0.4-1.4,0.2-1.8,0.6c0,0-0.2-0.6-0.2-0.7
					c-0.5-1.1-2.4-0.9-2.9,0.1l-0.1,0.3c-0.5-0.1-1.6-0.4-2,0c-0.6,0.6-0.3,1.4-0.1,2.1c-0.7-0.1-1.6-0.2-1.8,0.9
					c-0.3,1.3,0.2,1.5,1.2,1.9c-1.9,1.3-2.5,1.9-0.1,3.3c-1.4,1.8-0.4,2.2,1.4,2c-0.2,0.5-0.6,1.8-0.2,2.2c0.5,0.5,2.1-0.4,2.6-0.6
					c0,0,0,2.9-0.2,4.3c-0.3,2.9,0.1,4-2.5,6c0.4-0.2,1.3-0.7,1.7-0.3c0.5,0.5-0.8,1.9-1.1,2.5L45.1,62.2z"/>
			</g>
			<path class="st4" d="M39.5,23.5l-9.4,9.3h18.7L39.5,23.5z M22.5,25.9l8.1-8.1l-8.1-8.1V25.9z M55.6,10.7l-7.7,7.7l7.7,7.6V10.7z
				 M48.8,2.9H29.3l9.7,9.7L48.8,2.9z"/>
		</g>
		<g>
			<path class="st0" d="M81.4,100.1l-9.1,0v4.6c0,0,0,0.2-0.1,0.4c-0.2,0.8-0.8,1.3-1.7,1.4l-59.4,0l0,4.5c0,0.9-0.8,1.8-1.8,1.8
				H1.8l0-1.1H0V97.5h6.8v-4.2c0-0.6,0.3-1.1,0.6-1.5c0.4-0.3,0.8-0.6,1.3-0.6l0.1,0h59.1v-4.3c0-0.9,0.7-1.8,1.6-2
				c0.1,0,0.3,0,0.3-0.1l0.1,0h12.3h0.1c1,0.1,1.7,0.8,1.9,1.7c0.8,0.2,1.3,0.9,1.3,1.7v3h57.9l0.1,0c0.5,0,0.9,0.3,1.3,0.6
				c0.3,0.3,0.5,0.7,0.6,1.1c0.2,0.1,0.5,0.2,0.8,0.4c0.3,0.3,0.5,0.8,0.5,1.2l0,3h5.5v1.6h1.2v13.8h-7.5c0,0-0.2,0-0.4-0.1
				c-0.6-0.2-1-0.5-1.2-1c-0.1,0-0.2,0-0.4-0.1c-0.9-0.2-1.6-1.1-1.5-2l0-3.2H85c-0.8,0-1.3-0.5-1.6-1.1c-1.2-0.1-2-1.1-2-2.1V100.1
				z"/>
			<path class="st4" d="M69.9,103.5l-1.9-4.4v-6.8l-59.2,0c-0.2,0-0.4,0.1-0.6,0.3c-0.1,0.2-0.3,0.4-0.3,0.6l0,11.2h61
				C69.4,104.3,69.8,104,69.9,103.5z M145.6,98.6v6.9l-2,4.3c0.1,0.5,0.5,0.8,0.9,0.8h6.7v-12H145.6z M144.2,105.5h-0.5l0,1.3
				L144.2,105.5z M8.2,105.5l0.5,1.3l0-1.3H8.2z M8.7,109.9L7,105.5H6.8v-6.9H1.1v12h6.7c0,0,0.1,0,0.2,0
				C8.4,110.5,8.7,110.2,8.7,109.9z M69.8,85.9c-0.4,0.1-0.7,0.5-0.7,0.9v11.2h14.2V86.8c0,0,0-0.1,0-0.2c-0.1-0.4-0.4-0.7-0.9-0.7
				H69.9C69.9,85.9,69.9,85.9,69.8,85.9z M82.5,103.3c0,0,0,0.2,0,0.3c0.1,0.3,0.4,0.7,0.8,0.7l61.1,0l0-11.2c0-0.2-0.1-0.5-0.3-0.6
				c-0.2-0.1-0.4-0.2-0.6-0.3H84.5v6.8L82.5,103.3z M83,99.1h-0.5v1.3L83,99.1z M69.4,99.1h0.5v1.3L69.4,99.1z"/>
			<path class="st0" d="M19.1,101.7c0.3,0,0.5-0.1,0.6-0.2c0.1-0.1,0.4-0.4,0.8-1l1.5-2l-1.1-1.7c-0.5-0.7-0.8-1.2-1-1.3
				c-0.2-0.2-0.4-0.3-0.8-0.3v-0.2h2.9v0.2c-0.3,0-0.5,0-0.6,0.1c-0.1,0-0.2,0.1-0.2,0.3c0,0.1,0,0.2,0.1,0.3c0,0.1,0.1,0.1,0.1,0.2
				l1,1.5l1.1-1.4c0.2-0.2,0.3-0.4,0.3-0.5c0-0.1,0.1-0.1,0.1-0.2c0-0.1-0.1-0.2-0.2-0.3c-0.1,0-0.2,0-0.5-0.1v-0.2h2.3v0.2
				c-0.3,0-0.5,0.1-0.6,0.1c-0.2,0.1-0.5,0.4-0.8,0.8l-1.4,1.9l1.9,2.8c0.2,0.3,0.4,0.5,0.5,0.6c0.1,0.1,0.3,0.1,0.6,0.2v0.2h-2.9
				v-0.2c0.3,0,0.5,0,0.6-0.1c0.1,0,0.2-0.1,0.2-0.3c0-0.1-0.1-0.3-0.2-0.5c-0.1-0.2-0.5-0.9-1.2-1.9l-1.1,1.5
				c-0.2,0.2-0.3,0.4-0.4,0.5c-0.1,0.2-0.2,0.3-0.2,0.4c0,0.1,0.1,0.2,0.2,0.3c0.1,0,0.3,0.1,0.5,0.1v0.2h-2.3V101.7z M31.5,95.1
				v0.2c-0.4,0-0.6,0.1-0.7,0.2c-0.1,0.1-0.2,0.3-0.2,0.7v3.3c0,0.5,0.1,1,0.2,1.3c0.3,0.5,0.8,0.8,1.5,0.8c0.8,0,1.3-0.3,1.6-0.8
				c0.2-0.3,0.2-0.8,0.2-1.5v-2.7c0-0.6-0.1-0.9-0.2-1c-0.1-0.1-0.4-0.2-0.7-0.3v-0.2h2.3v0.2c-0.4,0-0.6,0.1-0.7,0.3
				c-0.1,0.1-0.2,0.5-0.2,1v2.7c0,0.7-0.1,1.3-0.3,1.7c-0.4,0.7-1.1,1.1-2.2,1.1c-1.1,0-1.8-0.4-2.2-1.1c-0.2-0.4-0.3-0.9-0.3-1.5
				v-3.2c0-0.4-0.1-0.6-0.2-0.7c-0.1-0.1-0.3-0.2-0.7-0.2v-0.2H31.5z M35.8,101.7c0.4,0,0.7-0.1,0.8-0.3c0.1-0.2,0.2-0.5,0.2-1v-4.2
				c0-0.4-0.1-0.6-0.2-0.7c-0.1-0.1-0.4-0.2-0.8-0.2v-0.2h1.9l2.3,5.2l2.2-5.2h1.9v0.2c-0.4,0-0.6,0.1-0.7,0.2
				c-0.1,0.1-0.2,0.3-0.2,0.7v4.6c0,0.4,0.1,0.6,0.2,0.7c0.1,0.1,0.3,0.2,0.7,0.2v0.2h-2.7v-0.2c0.4,0,0.6-0.1,0.7-0.2
				c0.1-0.1,0.1-0.4,0.1-0.8V96l-2.5,5.8h-0.1l-2.5-5.6v4.1c0,0.6,0.1,0.9,0.2,1.1c0.1,0.1,0.3,0.2,0.7,0.2v0.2h-2.3V101.7z
				 M48.5,101.2c0.3-0.2,0.5-0.6,0.5-1.2c0-0.6-0.2-1-0.6-1.2c-0.4-0.2-0.9-0.3-1.5-0.3h-0.3l-0.2,0v2.6c0,0.2,0,0.3,0.1,0.3
				c0.1,0,0.3,0.1,0.7,0.1C47.7,101.5,48.1,101.4,48.5,101.2z M44.5,101.7c0.4,0,0.6-0.1,0.8-0.2c0.1-0.1,0.2-0.4,0.2-0.7v-4.6
				c0-0.4-0.1-0.6-0.2-0.7c-0.1-0.1-0.4-0.2-0.8-0.2v-0.2h2.7c0.8,0,1.4,0.1,1.9,0.4c0.5,0.3,0.7,0.7,0.7,1.4c0,0.5-0.2,0.9-0.5,1.1
				c-0.2,0.1-0.4,0.3-0.8,0.4c0.4,0.1,0.8,0.3,1.1,0.6c0.3,0.3,0.5,0.6,0.5,1.1c0,0.8-0.4,1.4-1.1,1.7c-0.4,0.2-0.8,0.2-1.4,0.2
				h-3.2V101.7z M48.2,98c0.4-0.2,0.6-0.6,0.6-1.1c0-0.6-0.2-1-0.7-1.2c-0.3-0.1-0.7-0.2-1.2-0.2c-0.2,0-0.3,0-0.4,0.1
				c0,0-0.1,0.1-0.1,0.3v2.3l0.9,0C47.7,98.1,47.9,98.1,48.2,98z M54.3,98.1c0.5-0.2,0.8-0.6,0.8-1.3c0-0.6-0.2-1-0.7-1.2
				c-0.2-0.1-0.6-0.2-1-0.2c-0.3,0-0.4,0-0.5,0.1c-0.1,0-0.1,0.1-0.1,0.3v2.5C53.5,98.3,54,98.3,54.3,98.1z M50.9,101.7
				c0.4,0,0.6-0.1,0.7-0.2c0.1-0.1,0.1-0.4,0.1-0.8v-4.4c0-0.4-0.1-0.6-0.2-0.7c-0.1-0.1-0.3-0.2-0.7-0.2v-0.2h2.7
				c0.6,0,1,0.1,1.4,0.2c0.7,0.3,1.1,0.8,1.1,1.6c0,0.5-0.2,0.9-0.5,1.2c-0.3,0.3-0.7,0.5-1.3,0.5l2,2.6c0.1,0.2,0.2,0.3,0.4,0.3
				c0.1,0.1,0.3,0.1,0.5,0.1v0.2h-1.6l-2.3-3.2l-0.5,0v2c0,0.4,0.1,0.6,0.2,0.7c0.1,0.1,0.3,0.2,0.7,0.2v0.2h-2.7V101.7z M61.4,99.2
				l-1.1-2.8l-1.1,2.8H61.4z M57.2,101.9v-0.2c0.3,0,0.4-0.1,0.6-0.3c0.1-0.2,0.3-0.6,0.6-1.4l2-5h0.2l2.4,5.8
				c0.2,0.4,0.3,0.6,0.4,0.7c0.1,0.1,0.3,0.2,0.5,0.2v0.2h-2.5v-0.2c0.3,0,0.5-0.1,0.6-0.1c0.1,0,0.1-0.1,0.1-0.3c0-0.1,0-0.1,0-0.3
				c0-0.1-0.1-0.3-0.1-0.4l-0.4-1H59c-0.3,0.7-0.4,1.1-0.5,1.2c0,0.1-0.1,0.3-0.1,0.3c0,0.2,0.1,0.3,0.2,0.4c0.1,0,0.2,0.1,0.5,0.1
				v0.2H57.2z M70.9,95c0.4,0,0.7-0.1,0.8-0.2c0.1-0.1,0.2-0.3,0.2-0.7v-4.6c0-0.4-0.1-0.6-0.2-0.7c-0.1-0.1-0.4-0.2-0.8-0.2v-0.2h3
				v0.2c-0.4,0-0.7,0.1-0.8,0.2c-0.1,0.1-0.2,0.3-0.2,0.7v4.6c0,0.4,0.1,0.6,0.2,0.7c0.1,0.1,0.4,0.2,0.8,0.2v0.2h-3V95z M74.3,95
				c0.4,0,0.7-0.1,0.8-0.3c0.1-0.2,0.2-0.5,0.2-1v-4.5L75.1,89c-0.2-0.2-0.3-0.3-0.4-0.3c-0.1,0-0.3-0.1-0.5-0.1v-0.2H76l4,4.9v-3.4
				c0-0.6-0.1-0.9-0.2-1.1c-0.1-0.1-0.4-0.2-0.7-0.2v-0.2h2.4v0.2c-0.4,0-0.7,0.1-0.8,0.3c-0.1,0.1-0.2,0.5-0.2,1v5.4h-0.2l-4.5-5.6
				v4c0,0.6,0.1,0.9,0.2,1.1c0.1,0.1,0.3,0.2,0.7,0.2v0.2h-2.4V95z M96.3,99.7c0.2,0.5,0.4,0.8,0.6,1.1c0.4,0.5,0.9,0.7,1.5,0.7
				c0.3,0,0.6-0.1,0.8-0.3c0.2-0.2,0.4-0.5,0.4-0.9c0-0.3-0.1-0.6-0.4-0.9c-0.2-0.2-0.5-0.4-1-0.7l-0.9-0.5
				c-0.3-0.2-0.5-0.3-0.6-0.5c-0.3-0.3-0.4-0.7-0.4-1.1c0-0.5,0.2-0.9,0.5-1.3c0.3-0.3,0.8-0.5,1.4-0.5c0.2,0,0.5,0.1,0.8,0.2
				c0.3,0.1,0.5,0.2,0.6,0.2c0.1,0,0.2,0,0.3-0.1c0.1-0.1,0.1-0.1,0.1-0.3h0.2l0.2,2.2h-0.2c-0.2-0.7-0.4-1.1-0.8-1.4
				c-0.4-0.3-0.7-0.4-1.1-0.4c-0.3,0-0.5,0.1-0.7,0.3c-0.2,0.2-0.3,0.4-0.3,0.7c0,0.3,0.1,0.5,0.2,0.7c0.2,0.2,0.4,0.4,0.7,0.6
				l0.9,0.6c0.6,0.3,1,0.7,1.2,1c0.2,0.3,0.3,0.6,0.3,1c0,0.5-0.2,1-0.6,1.3c-0.4,0.4-0.9,0.5-1.6,0.5c-0.3,0-0.6-0.1-1-0.2
				c-0.3-0.1-0.5-0.2-0.6-0.2c-0.1,0-0.2,0-0.2,0.1c0,0.1-0.1,0.2-0.1,0.2h-0.2L96,99.7H96.3z M104,100.7c0.4,0.5,0.9,0.8,1.6,0.8
				c0.6,0,1.1-0.3,1.5-0.8c0.4-0.5,0.6-1.3,0.6-2.4c0-1.1-0.2-1.9-0.7-2.4c-0.4-0.5-0.9-0.7-1.5-0.7c-0.6,0-1.1,0.3-1.6,0.8
				c-0.4,0.5-0.6,1.3-0.6,2.4C103.4,99.4,103.6,100.2,104,100.7z M103.3,95.7c0.6-0.6,1.4-0.9,2.3-0.9c0.9,0,1.7,0.3,2.3,0.9
				c0.7,0.7,1,1.5,1,2.6c0,1.1-0.4,2-1.1,2.7c-0.6,0.6-1.4,0.9-2.3,0.9c-1,0-1.8-0.3-2.4-1c-0.6-0.7-1-1.5-1-2.6
				C102.2,97.2,102.6,96.4,103.3,95.7z M110.1,101.5c0.4,0,0.6-0.1,0.7-0.2c0.1-0.1,0.2-0.3,0.2-0.7v-4.6c0-0.4-0.1-0.6-0.2-0.7
				c-0.1-0.1-0.4-0.2-0.7-0.2v-0.2h2.9v0.2c-0.4,0-0.6,0.1-0.8,0.2c-0.1,0.1-0.2,0.3-0.2,0.7v4.9c0,0.1,0,0.2,0.1,0.3
				c0,0.1,0.1,0.1,0.3,0.1l0.2,0l0.5,0c0.9,0,1.5-0.1,1.9-0.2c0.3-0.2,0.6-0.5,0.9-1.2h0.3l-0.5,1.8h-5.5V101.5z M117,101.5
				c0.4,0,0.6-0.1,0.7-0.2c0.1-0.1,0.2-0.3,0.2-0.7v-4.6c0-0.4-0.1-0.6-0.2-0.7c-0.1-0.1-0.4-0.2-0.7-0.2v-0.2h5.5l0,1.5h-0.3
				c-0.1-0.5-0.2-0.7-0.4-0.9c-0.2-0.1-0.6-0.2-1.2-0.2h-1.4c-0.2,0-0.2,0-0.3,0.1c0,0-0.1,0.1-0.1,0.3V98h1.6
				c0.4,0,0.7-0.1,0.8-0.2c0.1-0.1,0.2-0.4,0.3-0.8h0.2v2.4h-0.2c-0.1-0.4-0.2-0.7-0.3-0.8c-0.1-0.1-0.4-0.2-0.8-0.2h-1.6v2.5
				c0,0.2,0.1,0.3,0.2,0.4c0.1,0,0.5,0.1,1.2,0.1c0.7,0,1.2-0.1,1.5-0.2c0.3-0.2,0.6-0.5,0.9-1.1h0.3l-0.5,1.7H117V101.5z
				 M123.8,101.5c0.4,0,0.7-0.1,0.8-0.3c0.1-0.2,0.2-0.5,0.2-1v-4.2c0-0.4-0.1-0.6-0.2-0.7c-0.1-0.1-0.4-0.2-0.8-0.2v-0.2h2l2.4,5.2
				l2.3-5.2h2v0.2c-0.4,0-0.6,0.1-0.7,0.2c-0.1,0.1-0.2,0.3-0.2,0.7v4.6c0,0.4,0.1,0.6,0.2,0.7c0.1,0.1,0.4,0.2,0.7,0.2v0.2h-2.9
				v-0.2c0.4,0,0.7-0.1,0.8-0.2c0.1-0.1,0.2-0.4,0.2-0.8v-4.6l-2.6,5.8h-0.1l-2.6-5.6v4.1c0,0.6,0.1,0.9,0.2,1.1
				c0.1,0.1,0.3,0.2,0.7,0.2v0.2h-2.4V101.5z M13.1,101.7c0.4,0,0.6-0.1,0.7-0.2c0.1-0.1,0.2-0.3,0.2-0.7v-4.6
				c0-0.4-0.1-0.6-0.2-0.7c-0.1-0.1-0.3-0.2-0.7-0.2v-0.2h5.2l0,1.5h-0.2c-0.1-0.5-0.2-0.7-0.4-0.9c-0.2-0.1-0.5-0.2-1.1-0.2h-1.3
				c-0.1,0-0.2,0-0.3,0.1c0,0,0,0.1,0,0.3v2.3h1.5c0.4,0,0.7-0.1,0.8-0.2c0.1-0.1,0.2-0.4,0.3-0.8h0.2v2.4h-0.2
				c-0.1-0.4-0.2-0.7-0.3-0.8c-0.1-0.1-0.4-0.2-0.8-0.2H15v2.5c0,0.2,0.1,0.3,0.2,0.4c0.1,0,0.5,0.1,1.1,0.1c0.7,0,1.1-0.1,1.5-0.2
				c0.3-0.2,0.6-0.5,0.8-1.1h0.3l-0.4,1.7h-5.3V101.7z"/>
		</g>
	</g>
</g>
</svg>
